<svg viewBox="0 0 25 25" xmlns="http://www.w3.org/2000/svg" xmlns:xlink="http://www.w3.org/1999/xlink" width="25.000000" height="25.000000" fill="none">
	<rect id="dress (1) 1" width="25.000000" height="25.000000" x="0.000000" y="0.000000" fill="rgb(255,255,255)" fill-opacity="0" />
	<path id="Vector" d="M21.5169 22.6493L21.1587 20.9776C20.4207 17.5332 19.0683 14.2964 17.1387 11.3529L17.1387 8.64058C18.0275 7.97178 18.6035 6.9084 18.6035 5.71289L18.6035 4.24805C18.6035 3.84355 18.2756 3.51562 17.8711 3.51562L17.1387 3.51562L17.1387 0.732422C17.1387 0.32793 16.8107 3.46945e-16 16.4062 3.46945e-16C16.0018 3.46945e-16 15.6738 0.32793 15.6738 0.732422L15.6738 3.52339C14.3584 3.6001 13.2059 4.29209 12.5 5.31528C11.7941 4.29209 10.6416 3.6001 9.32617 3.52339L9.32617 0.732422C9.32617 0.32793 8.99824 0 8.59375 0C8.18925 0 7.86133 0.32793 7.86133 0.732422L7.86133 3.51562L7.1289 3.51562C6.72441 3.51562 6.39648 3.84355 6.39648 4.24805L6.39648 5.71289C6.39648 6.9084 6.97246 7.97178 7.86133 8.64058L7.86133 11.3529C5.93174 14.2964 4.57934 17.5332 3.84126 20.9776L3.48305 22.6493C3.40649 23.0066 3.60507 23.3658 3.94853 23.4909C6.69741 24.4923 9.57451 25 12.5 25C15.4255 25 18.3026 24.4923 21.0515 23.4909C21.3949 23.3658 21.5935 23.0067 21.5169 22.6493ZM15.918 4.98047L17.1387 4.98047L17.1387 5.71289C17.1387 6.92446 16.153 7.91016 14.9414 7.91016L13.2324 7.91016L13.2324 7.66602C13.2324 6.1852 14.4372 4.98047 15.918 4.98047ZM7.86133 4.98047L9.08203 4.98047C10.5628 4.98047 11.7676 6.1852 11.7676 7.66602L11.7676 7.91016L10.0586 7.91016C8.84702 7.91016 7.86133 6.92446 7.86133 5.71289L7.86133 4.98047ZM10.0586 9.375L14.9414 9.375C15.1922 9.375 15.4371 9.34956 15.6738 9.30132L15.6738 10.8398L9.32617 10.8398L9.32617 9.30132C9.56289 9.34956 9.80781 9.375 10.0586 9.375ZM12.5 23.5352C9.95849 23.5352 7.45561 23.128 5.05073 22.3244L5.27353 21.2846C5.96118 18.0757 7.21054 15.0566 8.98901 12.3047L16.0109 12.3047C17.7894 15.0566 19.0388 18.0757 19.7264 21.2845L19.9492 22.3244C17.5444 23.128 15.0415 23.5352 12.5 23.5352Z" fill="rgb(0,0,0)" fill-rule="nonzero" />
</svg>
