<svg viewBox="0 0 24 23.5426" xmlns="http://www.w3.org/2000/svg" xmlns:xlink="http://www.w3.org/1999/xlink" width="24.000000" height="23.542633" fill="none" customFrame="#000000">
	<path id="Vector" d="M23.8454 7.9956C23.7281 7.88036 23.5642 7.82572 23.4012 7.84755L17.0343 7.84755L17.0343 5.03426C17.0343 2.2539 14.7804 0 12.0001 0C9.21971 0 6.96582 2.2539 6.96582 5.03426L6.96582 7.84755L0.598861 7.84755C0.421164 7.84755 0.243523 7.84755 0.154646 7.9956C0.0352739 8.11032 -0.0201042 8.2764 0.00659291 8.43981L2.22761 20.5813C2.53789 22.275 4.00034 23.5144 5.72199 23.5426L18.278 23.5426C20.0046 23.5002 21.464 22.251 21.7724 20.5517L23.9934 8.43981C24.0201 8.2764 23.9647 8.11032 23.8454 7.9956ZM8.1503 5.03426C8.1503 2.90812 9.87388 1.18454 12 1.18454C14.1261 1.18454 15.8497 2.90812 15.8497 5.03426L15.8497 7.84755L8.1503 7.84755L8.1503 5.03426ZM20.5879 20.4036C20.3884 21.526 19.4179 22.3472 18.278 22.3581L5.72199 22.3581C4.58212 22.3472 3.61161 21.526 3.41215 20.4036L1.30959 9.03208L22.6904 9.03208L20.5879 20.4036Z" fill="rgb(0,0,0)" fill-rule="nonzero" />
</svg>
